<svg clip-rule="evenodd" fill-rule="evenodd" stroke-linejoin="round" stroke-miterlimit="2" viewBox="0 0 32 32" xmlns="http://www.w3.org/2000/svg" xmlns:xlink="http://www.w3.org/1999/xlink" xmlns:serif="http://www.serif.com/"><clipPath id="_clip1"><path clip-rule="evenodd" d="m47 3h28v28h-28z"/></clipPath><g transform="translate(-111.592 -77.627)"><g id="_16" transform="matrix(1.143 0 0 1.143 57.878 74.198)"><path d="m47 3h28v28h-28z" fill="none"/><g clip-path="url(#_clip1)"><g transform="matrix(.875 0 0 .875 -16.836 -64.924)"><circle cx="88.956" cy="88.186" fill="#e26d5c" r="7"/></g><g transform="matrix(.875 0 0 .875 -16.836 -64.924)"><path d="m84.456 93.627s-2.559-3.063-2.53-6.031c.03-2.969 1.88-3.969 3.055-4.969 1.176-1 6.195-1 6.195-1s-4.72 1-6.195 5.184c-1.349 3.83-.108 7.316-.525 6.816z" fill="#ffe1a8"/></g><g transform="matrix(.875 0 0 .875 -16.836 -64.924)"><path d="m83.688 94.268c.398.477.828.426 1.024.388.278-.054.548-.202.721-.554.051-.103.14-.463.069-1.035-.119-.967-.48-3.363.422-5.923 1.296-3.678 5.459-4.539 5.459-4.539.501-.106.841-.573.788-1.082-.054-.51-.483-.896-.995-.896 0 0-2.561.002-4.518.359-1.016.186-1.88.501-2.325.879-1.342 1.142-3.373 2.332-3.407 5.721-.032 3.282 2.762 6.682 2.762 6.682zm2.638-11.173c-.298.074-.544.164-.697.294-1.009.858-2.678 1.667-2.703 4.216-.007.757.176 1.52.442 2.223.067-1.023.255-2.17.67-3.349.507-1.439 1.355-2.544 2.288-3.384z" fill="none"/></g><g transform="matrix(.875 0 0 .875 -16.836 -64.924)"><path d="m93.956 83.627s3.214 3.34 1.664 7c-1.549 3.66-4.444 4.5-4.444 4.5s2.165-2.514 2.484-6c.411-4.5-2.204-6.842-2.204-6.842z" fill="#472d30"/></g><g transform="matrix(.875 0 0 .875 -16.836 -64.924)"><path d="m94.676 82.933c-.072-.075-.156-.138-.247-.187l-2.5-1.342c-.447-.24-1.001-.108-1.292.307s-.226.981.152 1.319c0 0 2.235 2.067 1.875 6.006-.289 3.159-2.246 5.438-2.246 5.438-.289.336-.323.821-.083 1.193.239.373.695.544 1.12.42 0 0 3.327-.914 5.086-5.07 1.787-4.22-1.865-8.084-1.865-8.084zm-.141 3.345c.159.864.221 1.845.12 2.94-.056.614-.164 1.2-.307 1.752.123-.228.241-.473.351-.733.625-1.475.324-2.886-.164-3.959z" fill="none"/></g><g transform="matrix(.875 0 0 .875 -16.836 -64.924)"><path d="m86.956 102.627v3h-3v3h10v-3h-3v-3z" fill="#e26d5c"/></g><g transform="matrix(.875 0 0 .875 -16.836 -64.924)"><path d="m86.456 105.127v-2.5c0-.276.224-.5.5-.5h4c.276 0 .5.224.5.5v2.5h2.5c.276 0 .5.224.5.5v3c0 .276-.224.5-.5.5h-10c-.276 0-.5-.224-.5-.5v-3c0-.276.224-.5.5-.5zm4-2h-3v2.5c0 .276-.224.5-.5.5h-2.5v2h9v-2h-2.5c-.276 0-.5-.224-.5-.5z" fill="none"/></g><g transform="matrix(.875 0 0 .875 -16.836 -64.924)"><path d="m90.942 105.627h-1.985v-3h1.999z" fill="#472d30"/></g><g transform="matrix(.875 0 0 .875 -16.836 -64.924)"><path d="m88.957 106.627h1.985c.55 0 .997-.445 1-.995l.014-3c.001-.266-.104-.522-.292-.711-.187-.188-.442-.294-.708-.294h-1.999c-.553 0-1 .448-1 1v3c0 .552.447 1 1 1z" fill="none"/></g><g transform="matrix(.875 0 0 .875 -16.836 -64.924)"><path d="m93.956 105.627h-3.014l.014 3h3z" fill="#472d30"/></g><g transform="matrix(.875 0 0 .875 -16.836 -64.924)"><path d="m94.956 105.627c0-.552-.448-1-1-1h-3.014c-.266 0-.522.106-.709.294-.188.189-.293.445-.291.711l.014 3c.002.55.449.995 1 .995h3c.552 0 1-.448 1-1zm-3.01 1 .005 1h1.005v-1z" fill="none"/></g><g transform="matrix(.875 0 0 .875 -22.961 -64.924)"><path d="m93.956 105.627h-3.014l.014 3h3z" fill="#ffe1a8"/></g><g transform="matrix(.875 0 0 .875 -22.961 -64.924)"><path d="m94.956 105.627c0-.552-.448-1-1-1h-3.014c-.266 0-.522.106-.709.294-.188.189-.293.445-.291.711l.014 3c.002.55.449.995 1 .995h3c.552 0 1-.448 1-1zm-3.01 1 .005 1h1.005v-1z" fill="none"/></g><g id="circle14743" transform="matrix(.232 0 0 .232 47 3)"><path d="m70.113 0c-2.008.089-3.612 1.765-3.612 3.775 0 1.696 1.142 3.195 2.778 3.644 12.778 3.424 22.388 13.923 24.685 26.951s-3.137 26.199-13.974 33.787c-10.836 7.588-25.061 8.209-36.518 1.594-.605-.383-1.306-.586-2.022-.586-2.073 0-3.779 1.706-3.779 3.779 0 1.393.77 2.677 1.999 3.333 5.315 3.069 11.133 4.857 17.023 5.396v9.028h-3.765c-2.099-.008-3.802 1.696-3.794 3.795v7.566h-7.567c-.12-.006-.24-.006-.361 0-1.935.193-3.406 1.821-3.403 3.765v7.559c-.131-.007-.261-.007-.392 0-1.966.145-3.506 1.803-3.506 3.775 0 2.077 1.708 3.786 3.785 3.786.038 0 .075-.001.113-.002h45.339c.028 0 .056.001.084.001 2.074 0 3.781-1.707 3.781-3.781s-1.707-3.78-3.781-3.78c-.028 0-.056 0-.084.001v-7.559c-.007-2.077-1.687-3.758-3.765-3.765h-7.559v-7.566c.008-2.099-1.702-3.803-3.801-3.795h-3.765v-9.035c7.079-.641 14.012-3.078 20.064-7.316 13.227-9.262 19.908-25.384 17.104-41.287-2.804-15.902-14.595-28.743-30.192-32.923-.363-.102-.738-.149-1.115-.14zm-10.844 10.069c-12.865.528-24.49 9.334-27.992 22.404-4.31 16.086 5.277 32.695 21.363 37.005 16.086 4.311 32.725-5.277 37.035-21.363s-5.299-32.725-21.385-37.035c-3.016-.808-6.052-1.133-9.021-1.011zm3.337 7.662c1.238.121 2.484.317 3.728.65 1.253.336 2.439.794 3.58 1.314l-4.976 18.551-7.308-1.964zm-8.017.65-4.259 15.945-10.734-2.879c2.774-6.586 8.389-11.299 14.993-13.066zm21.932 5.891c4.826 4.833 7.322 11.716 6.429 18.801l-10.703-2.871zm-38.696 14.535 10.549 2.827-3.935 14.712c-4.555-4.54-7.068-10.898-6.614-17.539zm17.849 4.783 7.308 1.956-4.643 17.311c-1.246-.12-2.499-.322-3.75-.657-1.247-.334-2.422-.79-3.558-1.307zm14.616 3.92 10.512 2.82c-2.922 5.959-8.254 10.208-14.446 11.87zm-13.597 50.75h7.559v3.802h-7.559zm-11.324 11.361h30.214v3.765h-30.214z"/></g></g></g></g></svg>